<svg xmlns="http://www.w3.org/2000/svg" width="24" height="24" viewBox="0 0 96 96">
  <circle
    cx="48"
    cy="48"
    r="46"
    fill="none"
    stroke="#000000"
    stroke-width="1.7"
    stroke-linecap="round"
    stroke-linejoin="round"
  />
  <ellipse
    cx="48"
    cy="49.5"
    rx="10.4"
    ry="10.4"
    fill="none"
    stroke="#000000"
    stroke-width="1.7"
    stroke-linecap="round"
    stroke-linejoin="round"
  />
  <path
    d="M64 69H32
       a8 8 0 0 1-8-8V39.5
       a8 8 0 0 1 8-8h1.75
       a5 5 0 0 0 4.6-3.25
       C39.4 25.7 41.1 25 43.5 25h9
       c2.4 0 4.1.7 5.15 3.25
       a5 5 0 0 0 4.6 3.25H64
       a8 8 0 0 1 8 8V61
       a8 8 0 0 1-8 8Z"
    fill="none"
    stroke="#000000"
    stroke-width="1.7"
    stroke-linecap="round"
    stroke-linejoin="round"
  />
</svg>