<?xml version="1.0" encoding="utf-8"?>
<svg
  xmlns="http://www.w3.org/2000/svg"
  viewBox="0 0 24 24"
  width="24"
  height="24"
>
  <path
    fill="none"
    stroke="#000000"
    stroke-linecap="round"
    stroke-linejoin="round"
    stroke-width="1.5"
    d="M23.475 11.428l-.01-.143a1 1 0 0 0-.937-.935 4.246 4.246 0 0 1-3.97-3.971 1 1 0 0 0-.937-.937 4.246 4.246 0 0 1-3.97-3.97 1 1 0 0 0-.936-.937l-.144-.01A8.173 8.173 0 0 0 12 .5 11.5 11.5 0 1 0 23.5 12c0-.193-.013-.382-.025-.572ZM12 21.5a9.5 9.5 0 0 1-.223-18.998 6.256 6.256 0 0 0 4.892 4.83 6.256 6.256 0 0 0 4.828 4.89A9.51 9.51 0 0 1 12 21.5Zm-3.671-7.329a1.5 1.5 0 1 0 1.5 1.5 1.5 1.5 0 0 0-1.5-1.5Zm.882-7.342a1.5 1.5 0 1 0 1.5 1.5 1.5 1.5 0 0 0-1.5-1.5Zm6.46 6.46a1.5 1.5 0 1 0 1.5 1.5 1.5 1.5 0 0 0-1.5-1.5Z"
  />
</svg>
